<mxfile host="Electron" agent="Mozilla/5.0 (X11; Linux x86_64) AppleWebKit/537.36 (KHTML, like Gecko) draw.io/25.0.2 Chrome/128.0.6613.186 Electron/32.2.5 Safari/537.36" version="25.0.2">
  <diagram name="Page-1" id="2YBvvXClWsGukQMizWep">
    <mxGraphModel dx="1437" dy="850" grid="1" gridSize="10" guides="1" tooltips="1" connect="1" arrows="1" fold="1" page="1" pageScale="1" pageWidth="850" pageHeight="1100" math="0" shadow="0">
      <root>
        <mxCell id="0" />
        <mxCell id="1" parent="0" />
        <mxCell id="BXbjpWbFnJ0DZusJvFxA-12" value="" style="edgeStyle=orthogonalEdgeStyle;rounded=0;orthogonalLoop=1;jettySize=auto;html=1;" edge="1" parent="1" source="BXbjpWbFnJ0DZusJvFxA-1" target="BXbjpWbFnJ0DZusJvFxA-11">
          <mxGeometry relative="1" as="geometry" />
        </mxCell>
        <mxCell id="BXbjpWbFnJ0DZusJvFxA-1" value="x = seed&lt;div&gt;(timestamp)&lt;/div&gt;" style="rounded=0;whiteSpace=wrap;html=1;" vertex="1" parent="1">
          <mxGeometry x="90" y="525" width="120" height="60" as="geometry" />
        </mxCell>
        <mxCell id="BXbjpWbFnJ0DZusJvFxA-6" value="" style="edgeStyle=orthogonalEdgeStyle;rounded=0;orthogonalLoop=1;jettySize=auto;html=1;" edge="1" parent="1" source="BXbjpWbFnJ0DZusJvFxA-2" target="BXbjpWbFnJ0DZusJvFxA-5">
          <mxGeometry relative="1" as="geometry" />
        </mxCell>
        <mxCell id="BXbjpWbFnJ0DZusJvFxA-2" value="RNG algorithm" style="whiteSpace=wrap;html=1;rounded=0;" vertex="1" parent="1">
          <mxGeometry x="450" y="525" width="120" height="60" as="geometry" />
        </mxCell>
        <mxCell id="BXbjpWbFnJ0DZusJvFxA-14" value="" style="edgeStyle=orthogonalEdgeStyle;rounded=0;orthogonalLoop=1;jettySize=auto;html=1;" edge="1" parent="1" source="BXbjpWbFnJ0DZusJvFxA-5" target="BXbjpWbFnJ0DZusJvFxA-7">
          <mxGeometry relative="1" as="geometry" />
        </mxCell>
        <mxCell id="BXbjpWbFnJ0DZusJvFxA-5" value="x = random number" style="whiteSpace=wrap;html=1;rounded=0;" vertex="1" parent="1">
          <mxGeometry x="630" y="525" width="120" height="60" as="geometry" />
        </mxCell>
        <mxCell id="BXbjpWbFnJ0DZusJvFxA-15" value="" style="edgeStyle=orthogonalEdgeStyle;rounded=0;orthogonalLoop=1;jettySize=auto;html=1;" edge="1" parent="1" source="BXbjpWbFnJ0DZusJvFxA-7" target="BXbjpWbFnJ0DZusJvFxA-9">
          <mxGeometry relative="1" as="geometry" />
        </mxCell>
        <mxCell id="BXbjpWbFnJ0DZusJvFxA-21" value="Yes" style="edgeLabel;html=1;align=center;verticalAlign=middle;resizable=0;points=[];" vertex="1" connectable="0" parent="BXbjpWbFnJ0DZusJvFxA-15">
          <mxGeometry x="0.1095" relative="1" as="geometry">
            <mxPoint as="offset" />
          </mxGeometry>
        </mxCell>
        <mxCell id="BXbjpWbFnJ0DZusJvFxA-20" style="edgeStyle=orthogonalEdgeStyle;rounded=0;orthogonalLoop=1;jettySize=auto;html=1;entryX=0.5;entryY=0;entryDx=0;entryDy=0;" edge="1" parent="1" source="BXbjpWbFnJ0DZusJvFxA-7" target="BXbjpWbFnJ0DZusJvFxA-17">
          <mxGeometry relative="1" as="geometry">
            <Array as="points">
              <mxPoint x="690" y="335" />
              <mxPoint x="320" y="335" />
            </Array>
          </mxGeometry>
        </mxCell>
        <mxCell id="BXbjpWbFnJ0DZusJvFxA-22" value="No" style="edgeLabel;html=1;align=center;verticalAlign=middle;resizable=0;points=[];" vertex="1" connectable="0" parent="BXbjpWbFnJ0DZusJvFxA-20">
          <mxGeometry x="-0.3867" y="3" relative="1" as="geometry">
            <mxPoint y="-1" as="offset" />
          </mxGeometry>
        </mxCell>
        <mxCell id="BXbjpWbFnJ0DZusJvFxA-7" value="worst case period exceeded" style="rhombus;whiteSpace=wrap;html=1;rounded=0;" vertex="1" parent="1">
          <mxGeometry x="620" y="375" width="140" height="120" as="geometry" />
        </mxCell>
        <mxCell id="BXbjpWbFnJ0DZusJvFxA-18" value="" style="edgeStyle=orthogonalEdgeStyle;rounded=0;orthogonalLoop=1;jettySize=auto;html=1;" edge="1" parent="1" source="BXbjpWbFnJ0DZusJvFxA-9" target="BXbjpWbFnJ0DZusJvFxA-17">
          <mxGeometry relative="1" as="geometry" />
        </mxCell>
        <mxCell id="BXbjpWbFnJ0DZusJvFxA-9" value="x = new&amp;nbsp;&lt;div&gt;timestamp&lt;/div&gt;" style="whiteSpace=wrap;html=1;rounded=0;" vertex="1" parent="1">
          <mxGeometry x="450" y="405" width="120" height="60" as="geometry" />
        </mxCell>
        <mxCell id="BXbjpWbFnJ0DZusJvFxA-13" value="" style="edgeStyle=orthogonalEdgeStyle;rounded=0;orthogonalLoop=1;jettySize=auto;html=1;" edge="1" parent="1" source="BXbjpWbFnJ0DZusJvFxA-11" target="BXbjpWbFnJ0DZusJvFxA-2">
          <mxGeometry relative="1" as="geometry" />
        </mxCell>
        <mxCell id="BXbjpWbFnJ0DZusJvFxA-23" value="No" style="edgeLabel;html=1;align=center;verticalAlign=middle;resizable=0;points=[];" vertex="1" connectable="0" parent="BXbjpWbFnJ0DZusJvFxA-13">
          <mxGeometry x="-0.4182" relative="1" as="geometry">
            <mxPoint as="offset" />
          </mxGeometry>
        </mxCell>
        <mxCell id="BXbjpWbFnJ0DZusJvFxA-27" value="" style="edgeStyle=orthogonalEdgeStyle;rounded=0;orthogonalLoop=1;jettySize=auto;html=1;" edge="1" parent="1" source="BXbjpWbFnJ0DZusJvFxA-11" target="BXbjpWbFnJ0DZusJvFxA-26">
          <mxGeometry relative="1" as="geometry" />
        </mxCell>
        <mxCell id="BXbjpWbFnJ0DZusJvFxA-28" value="Yes" style="edgeLabel;html=1;align=center;verticalAlign=middle;resizable=0;points=[];" vertex="1" connectable="0" parent="BXbjpWbFnJ0DZusJvFxA-27">
          <mxGeometry x="-0.4317" y="-1" relative="1" as="geometry">
            <mxPoint as="offset" />
          </mxGeometry>
        </mxCell>
        <mxCell id="BXbjpWbFnJ0DZusJvFxA-11" value="count(random number)&lt;div&gt;&amp;lt;= n&lt;/div&gt;" style="rhombus;whiteSpace=wrap;html=1;" vertex="1" parent="1">
          <mxGeometry x="240" y="475" width="160" height="160" as="geometry" />
        </mxCell>
        <mxCell id="BXbjpWbFnJ0DZusJvFxA-19" value="" style="edgeStyle=orthogonalEdgeStyle;rounded=0;orthogonalLoop=1;jettySize=auto;html=1;" edge="1" parent="1" source="BXbjpWbFnJ0DZusJvFxA-17" target="BXbjpWbFnJ0DZusJvFxA-11">
          <mxGeometry relative="1" as="geometry" />
        </mxCell>
        <mxCell id="BXbjpWbFnJ0DZusJvFxA-17" value="" style="ellipse;whiteSpace=wrap;html=1;aspect=fixed;" vertex="1" parent="1">
          <mxGeometry x="300" y="415" width="40" height="40" as="geometry" />
        </mxCell>
        <mxCell id="BXbjpWbFnJ0DZusJvFxA-26" value="Output&lt;div&gt;Sequence&lt;/div&gt;" style="ellipse;whiteSpace=wrap;html=1;" vertex="1" parent="1">
          <mxGeometry x="260" y="685" width="120" height="80" as="geometry" />
        </mxCell>
      </root>
    </mxGraphModel>
  </diagram>
</mxfile>
